<svg width="65" height="51" viewBox="0 0 65 51" fill="none" xmlns="http://www.w3.org/2000/svg">
<path d="M40.5841 45.1342C40.6429 45.0268 40.6906 44.9139 40.7424 44.8037L59.545 4.10907C59.699 3.77722 59.8545 3.44676 60.0057 3.11352C60.0589 2.99919 60.1121 2.8988 60.2661 2.90019C60.6119 2.90019 60.9592 2.90019 61.354 2.90019C61.2672 3.10934 61.214 3.26411 61.1412 3.4133C54.4373 17.9682 47.7338 32.5226 41.0308 47.0765C40.7634 47.6565 40.4875 48.2352 40.2299 48.8194C40.0031 49.3353 40.0367 49.8372 40.4119 50.2751C40.5751 50.4794 40.7939 50.6327 41.0421 50.7168C41.2904 50.8008 41.5576 50.812 41.8121 50.7491C42.3721 50.6362 42.6522 50.25 42.8706 49.7731C49.5605 35.2749 56.2481 20.7796 62.9334 6.287C63.5719 4.90383 64.1935 3.51648 64.8516 2.13889C65.2128 1.3748 64.9202 0.29978 63.9121 0.0920257V0H58.8631C58.868 0.0141676 58.8698 0.0292192 58.8684 0.0441342C58.8669 0.0590492 58.8623 0.0734785 58.8547 0.0864473C58.3059 0.206359 58.0146 0.592586 57.7892 1.06247C57.0425 2.68174 56.2957 4.30055 55.549 5.9189C50.2396 17.4583 44.9246 28.9949 39.604 40.5287C39.5284 40.6947 39.4486 40.8578 39.3576 41.0502C39.1476 40.9108 39.1448 40.6793 39.0314 40.5162C38.6421 39.9585 38.7373 39.444 39.0188 38.8346C44.4962 26.9708 49.9568 15.1 55.4006 3.22228C55.5714 2.8486 55.7478 2.47632 55.9172 2.10682C56.3177 1.22003 55.8906 0.333243 54.9455 0.0780817C54.9409 0.0514712 54.9304 0.0262233 54.9147 0.0041828H49.9652C49.9728 0.0328977 49.9688 0.0634556 49.954 0.0892365C49.4079 0.199388 49.0845 0.559124 48.8632 1.04016C48.0101 2.89461 47.1555 4.74813 46.2996 6.60072L35.0493 31.0014C34.9975 31.1115 34.9443 31.2203 34.8743 31.3625C34.6475 31.1227 34.5943 30.8159 34.4403 30.5719C34.1518 30.1174 34.198 29.7116 34.4263 29.2194C38.5465 20.3339 42.6536 11.4427 46.7476 2.54603C46.9226 2.16678 47.0543 1.78892 46.9576 1.35807C46.9035 1.07985 46.7633 0.82549 46.5566 0.630685C46.35 0.43588 46.0872 0.310412 45.8053 0.271892C45.6381 0.252111 45.4696 0.24419 45.3013 0.248189C44.0159 0.248189 42.7306 0.271894 41.4466 0.23843C40.6149 0.216121 40.1011 0.570277 39.7664 1.30648C37.5113 6.21821 35.2472 11.1276 32.9743 16.0347C32.1706 17.7776 31.3669 19.5205 30.5632 21.2634C30.5072 21.3875 30.44 21.506 30.3476 21.6887C30.1236 21.2007 29.9276 20.7628 29.719 20.3236C29.6419 20.1549 29.761 20.0308 29.8212 19.9053C30.4848 18.4497 31.1518 16.9959 31.822 15.5439C33.8457 11.1434 35.8689 6.74247 37.8917 2.34107C38.1717 1.73593 38.0891 1.13498 37.6718 0.686006C37.557 0.552197 37.4148 0.444397 37.2546 0.369845C37.0945 0.295294 36.9203 0.255717 36.7435 0.253768C35.2286 0.253768 33.7136 0.241219 32.1986 0.253768C31.5476 0.253768 31.1261 0.637206 30.8629 1.20748L29.3507 4.48553C28.2614 6.8503 27.1707 9.21275 26.0786 11.5729C26.0239 11.6928 26.0001 11.8378 25.8475 11.9256L24.7148 9.48139C23.4841 6.81266 22.2435 4.14671 21.031 1.46961C20.751 0.840775 20.4205 0.288624 19.7583 0.0041828H19.1156C18.9994 0.15477 18.8048 0.179867 18.6591 0.283047C18.1845 0.623262 17.9465 1.06805 18.0179 1.65645C18.0602 1.86537 18.1343 2.06662 18.2377 2.25322C20.1979 6.51613 22.1581 10.7776 24.1183 15.0378C24.1839 15.155 24.2195 15.2865 24.2222 15.4207C24.2249 15.5549 24.1945 15.6876 24.1337 15.8074C21.7526 20.9469 19.3788 26.0887 17.0126 31.2328C16.9767 31.3483 16.9127 31.4532 16.8263 31.5382C16.7103 31.3863 16.6195 31.2168 16.5575 31.0362C11.9958 21.1477 7.43459 11.2582 2.87382 1.36783C2.80303 1.19961 2.71875 1.03735 2.62179 0.882606C2.20174 0.25795 1.44006 0.046012 0.814192 0.380649C0.0861122 0.765482 -0.185515 1.49611 0.129519 2.2351C0.184125 2.36198 0.244332 2.48468 0.300338 2.61017L15.3492 35.321C15.4086 35.4637 15.4754 35.6034 15.5494 35.7393C16.1193 36.7153 17.3976 36.7404 18.0067 35.7964C18.1151 35.613 18.211 35.4224 18.2937 35.2261L25.6235 19.3811C25.68 19.2167 25.7632 19.0626 25.8699 18.9251C26.0842 19.2305 26.1794 19.5874 26.3614 19.9012C26.5098 20.1549 26.4748 20.3738 26.3544 20.629C25.7187 21.9801 25.0942 23.3382 24.4754 24.6934C22.2351 29.5485 19.9949 34.4035 17.7546 39.2585C17.6576 39.4491 17.6064 39.6596 17.6052 39.8733C17.604 40.087 17.6527 40.298 17.7476 40.4897C17.8667 40.7379 17.9801 40.9875 18.0935 41.2371C18.6913 42.5547 19.292 43.8709 19.8829 45.1914C20.0817 45.6348 20.3813 45.9541 20.863 46.0768C21.6373 46.2734 22.2785 45.9694 22.6286 45.222C23.3567 43.6618 24.0749 42.0988 24.7974 40.5357C26.5709 36.6911 28.3473 32.8474 30.1264 29.0047C30.1838 28.8806 30.2034 28.7258 30.37 28.6449C30.5198 28.9698 30.6403 29.2849 30.8041 29.575C30.9679 29.865 30.9357 30.095 30.8041 30.3837C27.9898 36.4787 25.1792 42.5775 22.3723 48.68C22.3023 48.8319 22.2253 48.9825 22.1707 49.1401C22.102 49.3231 22.0734 49.5187 22.087 49.7137C22.1007 49.9087 22.1561 50.0985 22.2497 50.2703C22.3432 50.4421 22.4727 50.5919 22.6294 50.7096C22.7861 50.8274 22.9663 50.9102 23.1578 50.9527C23.8369 51.127 24.4712 50.8133 24.796 50.1161C25.5428 48.5126 26.283 46.9082 27.0167 45.3029C28.779 41.4862 30.5422 37.6699 32.3064 33.8541C32.3708 33.7147 32.3904 33.5348 32.5781 33.4526C32.6887 33.6882 32.7923 33.9085 32.8945 34.1288C33.1059 34.5848 33.3033 35.0491 33.533 35.4953C33.6453 35.7316 33.8221 35.9316 34.0432 36.0727C34.2643 36.2137 34.5208 36.29 34.7833 36.2928C35.3588 36.3137 35.7634 36.0139 36.0574 35.5385C36.1397 35.3925 36.2141 35.2421 36.2801 35.0881L50.0492 5.29842C50.3749 4.5929 50.7016 3.88783 51.0293 3.18324C51.0937 3.0438 51.1371 2.89182 51.3387 2.90437C51.672 2.91971 52.008 2.87509 52.3482 2.93365C52.3622 3.17487 52.2222 3.35195 52.1368 3.53739C47.7814 13.002 43.4232 22.4648 39.0622 31.9258C37.9654 34.3054 36.8681 36.6846 35.7704 39.0633C35.6796 39.2316 35.6278 39.418 35.6185 39.6088C35.6093 39.7996 35.643 39.99 35.7172 40.1662C36.464 41.8199 37.2135 43.4703 37.9659 45.1175C38.2221 45.6752 38.6897 45.9192 39.2946 45.9234C39.5635 45.9319 39.829 45.8617 40.0582 45.7214C40.2874 45.5811 40.4703 45.377 40.5841 45.1342ZM27.5907 15.1033C28.1741 13.8317 28.7612 12.5605 29.3521 11.2898C30.5548 8.6922 31.7632 6.09737 32.9505 3.49278C33.0905 3.17766 33.2641 3.05217 33.6016 3.09121C33.873 3.10556 34.145 3.10556 34.4165 3.09121L28.0962 16.8113C27.8665 16.3164 27.6859 15.919 27.4997 15.5258C27.4227 15.3612 27.5361 15.2358 27.5963 15.1033H27.5907ZM28.6086 25.4882C27.7685 27.3148 26.9284 29.1395 26.0884 30.9623C24.5939 34.2101 23.0986 37.4608 21.6023 40.7142C21.5211 40.8913 21.437 41.0656 21.3292 41.2956C21.2988 41.2637 21.2707 41.2297 21.2452 41.1938C21.0506 40.7644 20.7412 40.3475 20.6964 39.9027C20.6544 39.4844 21.0002 39.0926 21.1836 38.6938C23.3996 33.8611 25.6193 29.0321 27.8427 24.2068C27.9 24.0294 27.9955 23.8666 28.1228 23.73C28.3328 24.1873 28.5428 24.6237 28.7332 25.0629C28.8004 25.2247 28.6828 25.3543 28.6142 25.4882H28.6086ZM32.5739 26.5256C32.3498 26.0431 32.1748 25.6555 31.9886 25.2707C31.8906 25.0685 32.0068 24.9151 32.081 24.7548C32.8007 23.1904 33.5232 21.6278 34.2484 20.0671C36.7911 14.5642 39.3333 9.06077 41.8751 3.55691C41.9199 3.46071 41.9703 3.36589 42.0151 3.26689C42.035 3.21053 42.0736 3.16258 42.1245 3.13092C42.1753 3.09925 42.2355 3.08574 42.2951 3.0926C42.6298 3.0926 42.963 3.0926 43.3662 3.0926L32.5739 26.5256Z" fill="white"/>
</svg>
