<svg width="60" height="60" viewBox="0 0 60 60" fill="none" xmlns="http://www.w3.org/2000/svg">
<circle opacity="0.1" cx="30" cy="30" r="30" fill="#2F49D1"/>
<path d="M31.1406 25.2044V29.319L34.7342 31.3763C35.0127 31.5357 35.2159 31.7983 35.2991 32.1063C35.3824 32.4142 35.3388 32.7424 35.178 33.0185C35.0172 33.2946 34.7524 33.4961 34.4419 33.5786C34.1313 33.6612 33.8003 33.618 33.5219 33.4585L29.322 31.0542C29.3125 31.0487 29.304 31.0423 29.2947 31.0367C29.2738 31.0241 29.2532 31.0109 29.2331 30.9971C29.2178 30.9865 29.203 30.9751 29.1883 30.9639C29.1726 30.9518 29.1569 30.9398 29.1418 30.927C29.1253 30.9129 29.1092 30.8984 29.0936 30.8835C29.0815 30.872 29.0693 30.8605 29.0576 30.8486C29.0415 30.8321 29.0263 30.8152 29.0111 30.798C29.0006 30.7859 28.9902 30.7736 28.9801 30.7611C28.9663 30.7438 28.953 30.7262 28.9402 30.7082C28.9299 30.6939 28.92 30.6794 28.9103 30.6646C28.8995 30.6479 28.8891 30.631 28.8791 30.6137C28.869 30.5965 28.8593 30.5791 28.8501 30.5612C28.7966 30.4571 28.7585 30.346 28.7367 30.2312C28.7333 30.212 28.7303 30.1928 28.7279 30.1735C28.7253 30.1549 28.7228 30.1364 28.7212 30.1177C28.7193 30.0937 28.718 30.0697 28.7176 30.0457C28.7172 30.0347 28.7158 30.0241 28.7158 30.0131V25.2044C28.7158 24.8856 28.8436 24.5798 29.0709 24.3544C29.2983 24.1289 29.6067 24.0023 29.9282 24.0023C30.2497 24.0023 30.5581 24.1289 30.7855 24.3544C31.0128 24.5798 31.1406 24.8856 31.1406 25.2044ZM37.0721 22.9294C35.1759 21.0535 32.6067 20 29.9282 20C27.2497 20 24.6805 21.0535 22.7843 22.9294L21.4247 24.2772V23.1722C21.4247 22.8534 21.297 22.5476 21.0696 22.3221C20.8423 22.0967 20.5339 21.97 20.2124 21.97C19.8908 21.97 19.5825 22.0967 19.3551 22.3221C19.1277 22.5476 19 22.8534 19 23.1722V27.1794C19 27.219 19.002 27.2586 19.0061 27.2981C19.0078 27.3158 19.0111 27.333 19.0136 27.3504C19.0167 27.3718 19.0192 27.3932 19.0234 27.4144C19.0275 27.4344 19.033 27.4539 19.038 27.4735C19.0426 27.4918 19.0467 27.5104 19.0522 27.5285C19.0582 27.5478 19.0654 27.5665 19.0723 27.5853C19.0788 27.6034 19.0849 27.6217 19.0923 27.6395C19.0997 27.6572 19.1084 27.6742 19.1166 27.6914C19.1253 27.7097 19.1335 27.7282 19.1432 27.7461C19.1522 27.7626 19.1624 27.7784 19.172 27.7945C19.1826 27.812 19.1926 27.8298 19.2041 27.847C19.2162 27.8647 19.2293 27.8813 19.2423 27.8984C19.2531 27.9127 19.2632 27.9274 19.2748 27.9414C19.2995 27.9713 19.3255 27.9999 19.3529 28.0272C19.3537 28.0279 19.3543 28.0288 19.355 28.0295L19.3574 28.0316C19.3849 28.0588 19.4137 28.0846 19.4438 28.109C19.4582 28.1208 19.4733 28.1309 19.488 28.1418C19.505 28.1544 19.5215 28.1674 19.539 28.1791C19.5566 28.1907 19.5749 28.2008 19.5928 28.2114C19.6088 28.2208 19.6244 28.2309 19.6407 28.2395C19.6591 28.2493 19.678 28.2575 19.6967 28.2663C19.7139 28.2743 19.7307 28.2828 19.7482 28.29C19.7665 28.2975 19.7853 28.3036 19.8039 28.3102C19.8226 28.3168 19.8411 28.3239 19.8602 28.3297C19.879 28.3354 19.8982 28.3396 19.9172 28.3443C19.9365 28.3491 19.9555 28.3544 19.9751 28.3583C19.9974 28.3626 20.0198 28.3653 20.0421 28.3684C20.0589 28.3707 20.0755 28.3739 20.0924 28.3756C20.1325 28.3795 20.1727 28.3816 20.2129 28.3816H24.2536C24.5751 28.3816 24.8835 28.255 25.1109 28.0295C25.3382 27.8041 25.466 27.4983 25.466 27.1795C25.466 26.8607 25.3382 26.5549 25.1109 26.3294C24.8835 26.104 24.5751 25.9773 24.2536 25.9773H23.1392L24.4988 24.6294C25.5726 23.5646 26.9408 22.8395 28.4302 22.5457C29.9197 22.2519 31.4636 22.4027 32.8666 22.979C34.2696 23.5552 35.4688 24.5311 36.3125 25.7831C37.1562 27.0352 37.6066 28.5072 37.6066 30.0131C37.6066 31.5189 37.1562 32.9909 36.3125 34.243C35.4688 35.495 34.2696 36.4709 32.8666 37.0472C31.4636 37.6234 29.9197 37.7742 28.4302 37.4804C26.9408 37.1866 25.5726 36.4615 24.4988 35.3967C24.2708 35.1743 23.9634 35.0502 23.6436 35.0515C23.3238 35.0528 23.0174 35.1794 22.7913 35.4036C22.5651 35.6279 22.4375 35.9316 22.4362 36.2488C22.4349 36.5659 22.56 36.8707 22.7843 37.0968C24.6818 38.9619 27.2472 40.0058 29.919 40C32.5909 39.9942 35.1516 38.9392 37.0409 37.0658C38.9302 35.1925 39.9941 32.6533 40 30.004C40.0058 27.3547 38.9531 24.8109 37.0721 22.9294Z" fill="#2F49D1"/>
</svg>
