<svg width="60" height="60" viewBox="0 0 60 60" fill="none" xmlns="http://www.w3.org/2000/svg">
<circle opacity="0.1" cx="30" cy="30" r="30" fill="#5F2EEA"/>
<path d="M38.325 24.6023V21.72C38.325 21.3217 38.0033 21 37.605 21H22.395C21.9968 21 21.675 21.3217 21.675 21.72V24.6023C21.2993 24.6248 21 24.9375 21 25.32V28.2833C20.9986 28.8278 21.1088 29.367 21.324 29.8673C21.4208 30.0968 21.54 30.3128 21.675 30.5175V38.28C21.675 38.676 21.9968 39 22.395 39H37.605C38.0033 39 38.325 38.6783 38.325 38.28V30.5175C38.4621 30.3122 38.5796 30.0945 38.676 29.8673C38.8897 29.3655 39 28.8323 39 28.2833V25.32C39 24.9375 38.7008 24.6248 38.325 24.6023ZM23.295 22.62H36.705V24.6H23.295V22.62ZM31.44 37.3822H28.56V35.04H31.44V37.3822ZM36.705 37.3822H32.88V34.32C32.88 33.9218 32.5583 33.6 32.16 33.6H27.84C27.4418 33.6 27.12 33.9218 27.12 34.32V37.3822H23.295V31.9328C23.3603 31.9643 23.4278 31.9958 23.4975 32.0228C23.9993 32.2343 24.5325 32.34 25.0815 32.34C25.6305 32.34 26.1615 32.2343 26.6655 32.0228C26.976 31.8923 27.2685 31.7257 27.5363 31.5255C27.5408 31.5233 27.5453 31.5233 27.5498 31.5255C27.8183 31.7266 28.1108 31.8936 28.4205 32.0228C28.9223 32.2343 29.4555 32.34 30.0045 32.34C30.5535 32.34 31.0845 32.2343 31.5885 32.0228C31.899 31.8923 32.1915 31.7257 32.4593 31.5255C32.4638 31.5233 32.4683 31.5233 32.4728 31.5255C32.7413 31.7266 33.0338 31.8936 33.3435 32.0228C33.8453 32.2343 34.3785 32.34 34.9275 32.34C35.4765 32.34 36.0075 32.2343 36.5115 32.0228C36.579 31.9935 36.6465 31.9643 36.714 31.9328V37.3822H36.705ZM37.38 28.2833C37.38 29.6288 36.2775 30.72 34.9208 30.72C34.0028 30.72 33.2018 30.2228 32.7788 29.4848C32.7135 29.3723 32.5965 29.3025 32.466 29.3025H32.4525C32.3243 29.3025 32.205 29.3723 32.1398 29.4848C31.9239 29.8612 31.6122 30.1738 31.2364 30.3908C30.8605 30.6077 30.434 30.7213 30 30.72C29.0843 30.72 28.2855 30.225 27.8625 29.4893C27.795 29.3745 27.6735 29.3025 27.5408 29.3025C27.408 29.3025 27.2843 29.3745 27.219 29.4893C27.0019 29.8643 26.6898 30.1755 26.3142 30.3915C25.9385 30.6076 25.5126 30.7209 25.0793 30.72C23.7225 30.72 22.62 29.6288 22.62 28.2833V26.2313C22.62 26.2245 22.6245 26.22 22.6313 26.22H37.3688C37.3755 26.22 37.38 26.2245 37.38 26.2313V28.2833Z" fill="#9473F1"/>
</svg>
