<svg width="60" height="60" viewBox="0 0 60 60" fill="none" xmlns="http://www.w3.org/2000/svg">
<circle opacity="0.1" cx="30" cy="30" r="30" fill="#4BDE97"/>
<path d="M29.9448 32.7516C26.2073 32.7516 23.0537 33.3623 23.0537 35.7194C23.0537 38.0774 26.2276 38.6667 29.9448 38.6667C33.6822 38.6667 36.8358 38.0559 36.8358 35.6989C36.8358 33.3409 33.6619 32.7516 29.9448 32.7516" fill="#4BDE97"/>
<path opacity="0.4" d="M29.9448 30.506C32.4755 30.506 34.5048 28.465 34.5048 25.9196C34.5048 23.3733 32.4755 21.3333 29.9448 21.3333C27.414 21.3333 25.3847 23.3733 25.3847 25.9196C25.3847 28.465 27.414 30.506 29.9448 30.506" fill="#4BDE97"/>
<path opacity="0.4" d="M39.8453 26.9876C40.5001 24.412 38.5804 22.0988 36.1359 22.0988C35.8702 22.0988 35.616 22.1281 35.3677 22.1778C35.3347 22.1856 35.2978 22.2022 35.2784 22.2315C35.2561 22.2686 35.2726 22.3183 35.2969 22.3505C36.0312 23.3866 36.4531 24.6481 36.4531 26.0022C36.4531 27.2998 36.0661 28.5095 35.3871 29.5134C35.3172 29.6168 35.3793 29.7563 35.5025 29.7778C35.6732 29.808 35.8478 29.8236 36.0263 29.8285C37.8063 29.8753 39.4039 28.7232 39.8453 26.9876" fill="#4BDE97"/>
<path d="M41.7101 33.0517C41.3841 32.3531 40.5975 31.8741 39.4014 31.639C38.8369 31.5004 37.3091 31.3053 35.888 31.3317C35.8667 31.3346 35.855 31.3492 35.8531 31.359C35.8502 31.3726 35.856 31.3961 35.8841 31.4107C36.5408 31.7375 39.0794 33.159 38.7602 36.157C38.7467 36.2868 38.8505 36.3989 38.9795 36.3794C39.6042 36.2897 41.2115 35.9424 41.7101 34.8604C41.9856 34.2887 41.9856 33.6243 41.7101 33.0517" fill="#4BDE97"/>
<path opacity="0.4" d="M24.6319 22.1781C24.3845 22.1274 24.1294 22.0991 23.8636 22.0991C21.4192 22.0991 19.4995 24.4122 20.1552 26.9878C20.5956 28.7234 22.1932 29.8756 23.9732 29.8288C24.1517 29.8239 24.3273 29.8073 24.497 29.7781C24.6202 29.7566 24.6823 29.6171 24.6125 29.5137C23.9335 28.5088 23.5464 27.3 23.5464 26.0025C23.5464 24.6474 23.9693 23.3859 24.7037 22.3508C24.7269 22.3186 24.7444 22.2688 24.7211 22.2318C24.7017 22.2015 24.6658 22.1859 24.6319 22.1781" fill="#4BDE97"/>
<path d="M20.5984 31.6387C19.4023 31.8738 18.6166 32.3529 18.2907 33.0514C18.0142 33.6241 18.0142 34.2885 18.2907 34.8611C18.7893 35.9421 20.3966 36.2904 21.0213 36.3792C21.1503 36.3987 21.2531 36.2875 21.2395 36.1567C20.9204 33.1597 23.4589 31.7382 24.1166 31.4114C24.1438 31.3958 24.1496 31.3734 24.1467 31.3587C24.1448 31.349 24.1341 31.3343 24.1127 31.3324C22.6907 31.3051 21.1639 31.5002 20.5984 31.6387" fill="#4BDE97"/>
</svg>
